<?xml version="1.0" standalone="no"?>
<!DOCTYPE svg PUBLIC "-//W3C//DTD SVG 20010904//EN"
 "http://www.w3.org/TR/2001/REC-SVG-20010904/DTD/svg10.dtd">
<svg version="1.0" xmlns="http://www.w3.org/2000/svg"
 width="300.000000pt" height="300.000000pt" viewBox="0 0 300.000000 300.000000"
 preserveAspectRatio="xMidYMid meet">
<metadata>
Created by potrace 1.11, written by Peter Selinger 2001-2013
</metadata>
<g transform="translate(0.000000,300.000000) scale(0.100000,-0.100000)"
fill="#000000" stroke="none">
<path d="M938 2856 c-10 -7 -18 -20 -18 -28 0 -8 -16 -30 -35 -48 l-36 -35 7
-67 c4 -41 3 -73 -4 -80 -5 -7 -16 -46 -23 -87 -13 -76 -35 -114 -50 -89 -8
12 -13 4 -10 -14 0 -5 -5 -9 -11 -9 -7 -1 -20 -3 -28 -4 -8 -1 -21 -3 -28 -4
-7 0 -11 -5 -8 -10 7 -10 -22 -37 -30 -29 -3 3 -6 15 -7 27 -2 27 -23 34 -39
12 -23 -32 -38 -34 -64 -10 l-24 22 -16 -39 c-24 -54 -28 -200 -7 -233 8 -13
10 -20 4 -17 -6 4 -11 4 -11 -1 1 -13 37 -53 48 -53 5 0 12 -6 15 -14 4 -9 26
-16 59 -19 61 -6 96 -12 130 -22 12 -4 20 -4 16 0 -9 9 20 34 40 35 6 0 12 -7
12 -16 0 -30 34 -9 54 33 19 39 46 54 38 22 -2 -8 -5 -38 -7 -68 -3 -50 -14
-70 -40 -71 -13 0 -38 -40 -31 -47 3 -3 8 2 12 11 3 9 15 16 26 16 18 0 19 -4
13 -52 -4 -29 -13 -60 -21 -69 -8 -9 -11 -19 -7 -22 3 -4 1 -7 -5 -7 -7 0 -15
0 -19 0 -5 0 -8 4 -8 9 0 5 -4 13 -9 18 -5 5 -6 3 -2 -4 4 -8 -3 -23 -18 -36
-36 -34 -64 -169 -38 -186 9 -6 32 -45 32 -54 0 -10 -38 -47 -48 -47 -18 0
-44 -47 -44 -77 0 -15 -9 -34 -19 -42 -23 -21 -30 -66 -9 -66 8 0 16 9 18 20
3 11 11 24 18 28 8 5 11 13 8 19 -5 7 -1 9 9 5 12 -4 14 -2 10 10 -5 13 -2 15
16 10 12 -3 34 1 49 9 23 12 24 14 7 14 -18 1 -19 1 -2 11 9 5 17 15 17 21 0
7 -13 -1 -29 -16 -21 -20 -31 -24 -36 -15 -8 12 30 48 53 49 6 0 21 -9 32 -20
11 -11 31 -22 45 -26 17 -4 27 -15 31 -33 3 -14 8 -33 11 -41 12 -30 11 -39
-8 -59 -16 -17 -28 -20 -59 -16 -48 6 -60 -9 -31 -38 18 -18 31 -21 89 -19 79
3 123 16 146 41 16 18 16 22 -8 68 -22 45 -77 94 -127 115 -31 13 -30 49 3 79
29 28 30 30 19 76 -8 34 -8 59 -1 83 5 19 10 52 10 73 0 58 24 105 57 113 15
4 40 19 54 35 29 30 62 30 79 0 7 -13 -3 -28 -41 -66 -65 -66 -70 -76 -76
-154 -3 -36 -9 -70 -14 -76 -5 -5 -9 -18 -9 -30 0 -11 -14 -33 -30 -49 -17
-16 -30 -35 -30 -41 0 -6 23 -30 52 -54 43 -35 53 -39 60 -27 5 9 4 24 -2 36
-15 27 2 110 41 210 23 58 44 89 94 141 105 108 105 152 3 144 -43 -3 -48 -1
-48 17 0 20 3 21 108 13 144 -10 199 -7 237 13 37 20 116 86 227 190 70 65 81
72 118 72 31 0 47 -6 65 -26 29 -32 30 -37 9 -118 -20 -76 -22 -310 -4 -376 6
-25 25 -72 40 -105 23 -48 29 -78 32 -148 3 -78 2 -87 -14 -87 -22 0 -40 -34
-41 -79 -1 -45 26 -51 30 -7 3 43 25 61 52 44 18 -11 23 -11 31 1 5 9 5 22 0
32 -7 12 -3 26 13 50 29 43 60 54 114 40 l41 -11 -2 -65 c-1 -36 -8 -71 -14
-77 -7 -7 -12 -18 -12 -26 0 -7 -4 -10 -10 -7 -5 3 -18 2 -27 -4 -12 -6 -20
-5 -29 6 -11 16 -34 10 -34 -9 0 -6 7 -5 17 3 10 8 14 9 10 2 -4 -6 -3 -14 3
-18 21 -13 9 -24 -20 -18 -26 5 -30 2 -30 -15 0 -16 -4 -20 -16 -15 -14 5 -16
1 -12 -20 4 -22 3 -25 -8 -16 -10 8 -14 8 -14 0 0 -6 -8 -11 -17 -11 -14 0
-13 -3 5 -20 21 -19 21 -22 6 -45 -19 -28 -44 -23 -44 10 0 13 -7 26 -16 29
-14 6 -14 9 6 26 13 11 19 20 13 20 -5 0 -16 11 -23 25 -12 22 -15 23 -22 10
-11 -18 -2 -35 18 -35 8 0 12 -5 9 -10 -4 -6 -10 -8 -15 -5 -17 10 -21 -15 -6
-36 8 -12 12 -28 9 -35 -8 -21 -51 -17 -63 6 -6 11 -17 20 -25 20 -18 0 -20
-31 -4 -47 23 -23 2 -40 -56 -47 -40 -4 -67 -14 -91 -34 -39 -31 -42 -42 -14
-67 11 -10 20 -14 20 -10 0 5 7 0 16 -11 11 -13 17 -15 20 -6 3 6 17 12 31 12
22 0 24 -3 19 -25 -7 -28 21 -60 60 -68 31 -6 51 17 34 38 -18 21 -7 29 39 27
47 -2 56 8 75 79 10 41 18 53 30 51 9 -2 32 6 50 17 18 12 54 24 80 27 25 4
51 13 57 20 6 8 17 14 24 14 7 0 17 12 23 28 65 179 99 247 122 247 8 0 27
-25 42 -56 41 -87 117 -136 208 -137 52 0 57 3 93 40 40 43 97 153 97 186 0
11 -8 22 -20 25 -22 6 -27 36 -9 54 8 8 6 14 -9 22 -30 16 -63 75 -56 97 4 11
21 39 38 63 28 40 51 65 124 134 29 27 62 93 62 122 0 12 -6 28 -12 37 -22 27
-120 98 -155 113 -18 8 -37 25 -42 38 -10 26 -60 67 -81 67 -7 0 -10 -7 -6
-15 7 -20 4 -19 -63 14 -32 17 -96 42 -142 57 -46 14 -100 33 -119 40 -34 14
-121 35 -225 56 -221 43 -231 48 -370 185 -134 132 -179 161 -410 264 -21 9
-185 72 -245 94 -57 20 -123 25 -142 11z m84 -93 c24 -21 23 -33 -3 -33 -43 0
-93 43 -73 63 8 8 55 -10 76 -30z m300 -113 c46 -23 90 -45 98 -51 8 -5 37
-21 63 -37 27 -15 66 -39 88 -54 45 -32 127 -132 136 -166 17 -66 -61 -173
-197 -270 -65 -47 -66 -47 -157 -50 -100 -4 -170 12 -217 49 -15 11 -48 33
-76 47 -64 35 -150 111 -150 133 0 9 -7 23 -16 30 -41 34 31 296 84 307 8 1 4
-11 -11 -30 -14 -19 -25 -50 -26 -73 -1 -22 -3 -47 -3 -55 -4 -53 24 -71 41
-27 8 22 40 55 48 50 1 -2 13 -3 26 -2 l22 0 -23 9 c-24 10 -50 9 -69 -3 -14
-9 -6 31 12 53 6 8 18 31 25 50 18 46 26 56 85 103 45 35 53 39 92 33 23 -3
80 -24 125 -46z m-426 -437 c16 -17 19 -43 4 -43 -5 0 -10 8 -10 17 0 9 -7 24
-16 34 -11 12 -14 24 -8 36 7 16 8 15 12 -6 2 -13 10 -31 18 -38z m1447 -69
c174 -66 217 -88 267 -139 49 -50 53 -87 17 -176 -15 -36 -27 -70 -27 -75 -1
-14 -50 -71 -50 -57 0 6 -11 25 -25 41 -24 29 -24 31 -10 66 21 51 18 84 -13
140 -30 55 -100 109 -162 126 -32 9 -49 7 -96 -10 -77 -26 -123 -76 -119 -126
2 -20 10 -43 17 -52 8 -10 21 -34 31 -54 18 -40 45 -58 122 -78 28 -7 56 -17
62 -23 17 -13 7 -26 -16 -20 -10 2 -25 -2 -33 -11 -9 -8 -19 -12 -23 -8 -6 7
-43 12 -95 14 -41 1 -50 -1 -50 -13 0 -7 -8 -18 -17 -26 -10 -8 -12 -11 -4 -7
9 5 12 3 7 -4 -14 -23 -48 -11 -92 31 -38 36 -46 51 -55 102 -14 74 -5 213 17
280 21 62 57 112 86 119 56 12 170 -6 261 -40z m-1493 6 c0 -16 -4 -30 -10
-30 -5 0 -9 3 -8 8 1 4 -3 17 -10 30 -11 20 -10 22 8 22 16 0 20 -6 20 -30z
m1440 -156 c0 -8 -32 -33 -42 -34 -3 0 -4 9 -1 20 5 18 43 30 43 14z m80 -13
c0 -5 -7 -14 -15 -21 -16 -13 -45 -7 -45 9 0 8 10 12 53 20 4 0 7 -3 7 -8z
m60 -56 c0 -32 -6 -51 -20 -65 -12 -12 -18 -26 -14 -32 5 -7 17 1 33 21 29 35
51 40 51 11 0 -24 -37 -60 -62 -60 -9 0 -31 8 -48 19 l-31 18 26 31 c18 22 26
44 28 75 2 39 4 44 20 36 12 -7 17 -22 17 -54z m-1517 -20 c-3 -9 -8 -14 -10
-11 -3 3 -2 9 2 15 9 16 15 13 8 -4z m1327 7 c0 -13 -12 -22 -22 -16 -10 6 -1
24 13 24 5 0 9 -4 9 -8z m633 -33 c33 -15 31 -33 -4 -37 -28 -3 -79 31 -79 53
0 15 30 9 83 -16z m-383 -250 c0 -12 -8 -23 -20 -26 -15 -4 -17 -9 -10 -22 6
-13 3 -20 -12 -30 -23 -14 -37 -6 -20 11 7 7 12 19 12 28 0 19 28 60 41 60 5
0 9 -9 9 -21z"/>
<path d="M1240 2494 c-84 -22 -160 -62 -160 -84 0 -10 5 -22 11 -26 6 -3 8
-17 5 -29 -4 -16 1 -32 17 -52 13 -15 34 -47 47 -70 12 -23 32 -44 44 -47 33
-8 185 3 209 15 11 7 35 12 51 11 35 -1 66 22 66 50 0 11 -12 34 -26 53 -14
18 -30 51 -36 72 -12 46 -51 90 -95 109 -40 17 -63 17 -133 -2z m95 -64 c3 -6
-4 -10 -17 -10 -18 0 -20 2 -8 10 19 12 18 12 25 0z m-150 -63 c3 -50 -8 -55
-45 -22 l-20 18 27 28 c16 15 30 26 32 24 1 -2 4 -24 6 -48z m65 33 c13 -8 13
-10 -2 -10 -9 0 -20 5 -23 10 -8 13 5 13 25 0z m186 -21 c3 -6 -1 -18 -10 -27
-15 -15 -16 -14 -16 11 0 27 13 36 26 16z m-98 -17 c3 -9 -2 -13 -14 -10 -9 1
-19 9 -22 16 -3 9 2 13 14 10 9 -1 19 -9 22 -16z m132 -80 c0 -13 -12 -22 -35
-29 -40 -13 -42 -11 -17 22 20 29 52 33 52 7z"/>
<path d="M924 2311 c1 -17 5 -33 8 -36 3 -3 5 8 3 25 -1 17 -5 33 -8 36 -3 3
-4 -8 -3 -25z"/>
<path d="M1068 2214 c-7 -16 -19 -35 -26 -43 -11 -11 -10 -16 5 -26 10 -8 19
-10 21 -5 2 5 10 6 19 3 12 -5 14 -3 8 8 -5 8 4 3 18 -10 15 -14 23 -27 18
-30 -5 -4 1 -16 14 -27 16 -14 26 -18 29 -10 3 7 9 5 16 -6 10 -17 13 -17 40
-3 17 9 30 18 30 21 0 3 -5 2 -10 -1 -7 -4 -9 2 -4 19 4 16 2 26 -5 26 -6 0
-11 6 -11 13 -1 14 -72 61 -110 72 -14 4 -28 12 -32 18 -4 6 -12 -2 -20 -19z"/>
<path d="M723 2731 c-18 -15 -33 -30 -33 -32 0 -3 16 -6 35 -7 26 -2 35 1 35
13 0 8 5 15 11 15 5 0 7 5 4 10 -3 6 -1 10 4 10 18 0 12 16 -6 17 -10 1 -33
-11 -50 -26z"/>
<path d="M799 2698 c-6 -21 -5 -37 2 -32 5 3 7 9 4 14 -3 4 1 11 7 13 10 4 10
6 1 6 -7 1 -13 0 -14 -1z"/>
<path d="M830 2671 c0 -6 5 -13 10 -16 6 -3 10 1 10 9 0 9 -4 16 -10 16 -5 0
-10 -4 -10 -9z"/>
<path d="M705 2650 c3 -5 8 -10 11 -10 2 0 4 5 4 10 0 6 -5 10 -11 10 -5 0 -7
-4 -4 -10z"/>
<path d="M695 2627 c10 -15 20 -25 23 -22 3 3 -5 16 -17 28 l-23 22 17 -28z"/>
<path d="M1417 1756 c-93 -36 -102 -50 -102 -160 0 -93 0 -93 41 -152 47 -66
80 -86 178 -111 58 -14 76 -15 115 -4 63 17 104 42 119 74 18 37 52 169 46
179 -3 5 -17 8 -32 7 -15 -1 -35 2 -44 6 -11 4 -18 3 -18 -4 0 -6 5 -11 10
-11 6 0 10 -8 10 -19 0 -17 -3 -17 -50 6 -49 23 -65 43 -35 43 8 0 15 8 14 18
0 10 -3 12 -6 5 -2 -7 -9 -13 -15 -13 -6 0 -8 7 -5 14 5 14 -16 27 -48 31 -5
1 -27 9 -47 18 -21 9 -49 17 -62 17 -19 0 -24 4 -19 16 5 14 3 15 -15 5 -24
-13 -35 -2 -21 19 6 12 9 12 9 2 0 -10 4 -10 16 2 8 9 22 16 30 16 8 0 14 5
14 10 0 14 -18 11 -83 -14z m259 -336 c8 0 14 -7 14 -15 0 -21 -14 -19 -41 6
-19 16 -20 19 -6 15 10 -3 25 -6 33 -6z"/>
<path d="M1525 1769 c-11 -16 -1 -19 13 -3 7 8 8 14 3 14 -5 0 -13 -5 -16 -11z"/>
<path d="M2857 1663 c-2 -5 -4 -23 -6 -42 -1 -19 -6 -40 -11 -46 -7 -8 -2 -15
14 -23 31 -14 35 -4 28 66 -4 47 -14 65 -25 45z"/>
<path d="M1330 1364 c-14 -8 -24 -20 -22 -29 4 -21 -18 -18 -48 5 -26 20 -90
28 -90 10 0 -14 166 -90 197 -90 14 0 48 -14 76 -31 58 -35 105 -46 135 -30
11 6 28 8 36 5 19 -7 22 -34 4 -34 -8 0 -7 -5 3 -15 9 -9 23 -13 32 -9 15 5
15 8 2 21 -8 8 -15 21 -15 28 0 23 -22 65 -31 59 -5 -3 -8 5 -6 17 2 22 -27
36 -39 18 -3 -5 -15 -3 -27 6 -27 19 -46 19 -68 -1 -15 -14 -18 -13 -27 15 -7
19 -24 37 -49 49 -33 16 -41 17 -63 6z"/>
<path d="M2172 1294 c-7 -8 -8 -14 -3 -14 10 0 25 19 20 25 -2 1 -10 -3 -17
-11z"/>
<path d="M648 1234 c-11 -10 3 -34 19 -34 8 0 13 7 11 17 -3 18 -20 27 -30 17z"/>
<path d="M1240 1113 c0 -27 68 -72 84 -56 9 9 7 43 -1 43 -5 0 -25 4 -45 9
-21 5 -38 7 -38 4z"/>
<path d="M1316 929 c-35 -10 -76 -51 -105 -104 -26 -49 -26 -55 -1 -55 11 0
33 18 52 44 18 24 48 54 66 66 49 34 42 64 -12 49z"/>
<path d="M1155 920 c3 -5 10 -10 16 -10 5 0 9 5 9 10 0 6 -7 10 -16 10 -8 0
-12 -4 -9 -10z"/>
<path d="M853 887 c5 -14 2 -16 -16 -12 -20 5 -22 3 -21 -30 1 -19 -2 -38 -7
-41 -14 -8 -11 -26 4 -18 10 6 10 4 0 -7 -7 -7 -13 -23 -13 -36 0 -18 -6 -23
-25 -23 -14 0 -25 4 -25 10 0 5 -32 19 -71 31 -39 12 -93 36 -120 55 l-50 33
-47 -20 c-26 -11 -55 -28 -64 -36 -22 -20 -24 -45 -3 -37 11 5 14 2 8 -12 -12
-35 -35 -64 -49 -64 -17 0 -17 -5 -4 -29 6 -12 18 -17 35 -16 27 3 85 36 105
60 15 18 50 20 50 2 0 -7 -21 -45 -47 -85 -45 -69 -49 -72 -83 -70 -30 3 -35
0 -34 -18 1 -31 75 -143 99 -150 11 -4 28 -14 38 -22 15 -13 20 -14 27 -3 4 8
15 11 25 8 9 -4 13 -11 10 -17 -4 -6 3 -8 17 -6 13 3 29 5 36 5 10 1 10 6 2
21 -9 17 -14 18 -31 9 -29 -15 -36 -2 -17 32 9 16 13 29 8 29 -6 0 -10 10 -10
23 0 15 3 18 9 9 11 -18 61 -23 61 -6 0 7 9 15 19 19 25 8 35 34 16 41 -33 13
-7 44 40 50 6 0 22 4 37 8 30 9 72 -9 62 -26 -4 -6 -1 -9 7 -6 8 3 13 10 12
16 -3 11 35 4 43 -9 10 -17 -27 -67 -73 -98 -63 -41 -119 -88 -113 -95 3 -3
45 8 93 25 49 16 97 29 108 29 11 0 35 -16 55 -35 19 -19 47 -38 62 -41 15 -4
42 -18 60 -31 18 -13 49 -27 70 -30 46 -7 72 -20 72 -36 0 -7 8 -20 18 -29 27
-26 41 -45 36 -50 -2 -3 5 -13 16 -23 11 -10 20 -24 20 -31 0 -7 9 -12 19 -11
14 1 17 5 11 13 -6 6 -7 14 -3 18 4 4 -3 9 -15 13 -12 3 -22 10 -21 17 3 27
-2 38 -16 33 -8 -4 -17 -1 -21 5 -4 7 -3 8 5 4 8 -5 6 6 -4 31 l-16 38 37 32
c25 23 35 38 31 52 -11 45 104 24 119 -22 4 -14 12 -17 35 -12 21 5 29 3 29
-8 0 -7 11 -19 25 -25 14 -6 25 -16 25 -22 0 -5 8 -10 18 -10 10 0 24 -6 30
-12 9 -9 15 -10 20 -2 4 6 18 10 32 9 29 -2 59 41 60 87 0 28 -54 98 -76 98
-6 0 -17 6 -23 14 -10 12 -66 31 -83 27 -5 0 -9 2 -9 6 -7 41 -4 55 15 68 11
8 15 15 9 15 -7 0 -15 -4 -18 -10 -3 -5 -14 -10 -23 -10 -9 0 -27 -11 -41 -24
-18 -17 -43 -27 -78 -32 -50 -6 -53 -5 -53 15 0 16 10 26 35 37 34 14 47 34
23 34 -7 0 -5 5 5 11 18 11 18 11 0 28 -10 10 -37 20 -58 23 -22 4 -48 9 -57
13 -14 5 -18 2 -18 -12 0 -10 4 -23 9 -28 9 -10 14 -38 12 -62 -2 -21 -31 -15
-63 12 -33 28 -49 30 -128 13 -53 -11 -57 -10 -97 16 -54 36 -59 52 -28 95
l25 37 -28 75 c-38 104 -46 116 -66 100 -13 -11 -19 -11 -33 0 -15 12 -16 12
-10 -4z m-243 -247 c11 -6 25 -20 31 -31 8 -17 8 -20 -1 -14 -7 4 -16 2 -20
-4 -4 -7 -16 -13 -28 -14 -11 0 -20 -4 -20 -7 2 -18 -4 -21 -17 -10 -20 17
-19 32 6 64 23 30 23 30 49 16z m-55 -110 c0 -16 -8 -28 -23 -35 -12 -5 -22
-15 -22 -22 0 -7 -9 -13 -20 -13 -24 0 -26 15 -4 24 9 4 14 13 10 21 -3 8 -1
15 4 15 5 0 12 9 15 21 9 29 40 20 40 -11z m421 -43 c3 -38 -18 -53 -30 -21
-13 33 -7 66 11 62 12 -2 18 -14 19 -41z m109 23 c3 -5 -1 -10 -10 -10 -10 0
-13 -5 -9 -12 5 -9 2 -9 -9 1 -18 15 -23 26 -7 16 6 -3 10 -1 10 4 0 14 17 14
25 1z m-415 -4 c0 -3 -4 -8 -10 -11 -5 -3 -10 -1 -10 4 0 6 5 11 10 11 6 0 10
-2 10 -4z m-40 -32 c0 -8 -4 -12 -10 -9 -5 3 -10 10 -10 16 0 5 5 9 10 9 6 0
10 -7 10 -16z m-60 -59 c0 -29 -16 -41 -35 -25 -16 14 -9 40 12 40 8 0 11 5 7
12 -4 7 -3 8 4 4 7 -4 12 -18 12 -31z"/>
<path d="M1460 610 c0 -5 5 -10 11 -10 5 0 7 5 4 10 -3 6 -8 10 -11 10 -2 0
-4 -4 -4 -10z"/>
<path d="M1763 547 c-9 -19 -11 -54 -6 -113 5 -78 1 -111 -25 -184 -3 -8 -4
-24 -3 -35 1 -13 -10 -29 -31 -45 -18 -13 -37 -29 -41 -37 -4 -7 -20 -13 -36
-13 -15 0 -36 -7 -47 -15 -10 -8 -31 -15 -46 -15 -16 0 -28 -4 -28 -9 0 -4
-28 -14 -62 -21 -78 -16 -77 -16 -71 -40 6 -24 54 -28 73 -5 7 8 18 15 25 15
7 0 23 8 36 18 16 12 32 16 49 12 17 -4 21 -8 12 -13 -6 -5 -17 -17 -22 -28
-10 -18 -7 -19 75 -19 64 0 85 3 85 13 0 14 72 77 88 77 12 0 37 29 30 35 -5
5 -102 -29 -131 -46 -23 -13 -31 -7 -23 18 4 10 26 27 49 38 41 20 69 59 96
135 5 16 27 36 55 50 49 27 60 56 32 93 -16 20 -26 22 -26 4 0 -7 -8 -17 -18
-23 -17 -11 -18 -7 -16 55 2 54 -2 69 -17 84 -11 10 -23 15 -28 12 -5 -3 -11
2 -13 12 -2 13 -6 10 -15 -10z"/>
<path d="M755 479 c-11 -17 1 -21 15 -4 8 9 8 15 2 15 -6 0 -14 -5 -17 -11z"/>
<path d="M1395 296 c-11 -7 -32 -16 -47 -20 -41 -10 -36 -36 6 -36 38 0 93 41
81 59 -8 14 -17 14 -40 -3z"/>
<path d="M133 228 c-9 -11 -33 -74 -33 -84 0 -2 6 -4 14 -4 8 0 18 19 25 46
13 49 10 63 -6 42z"/>
<path d="M1655 200 c3 -5 10 -10 16 -10 5 0 9 5 9 10 0 6 -7 10 -16 10 -8 0
-12 -4 -9 -10z"/>
<path d="M64 63 c-19 -44 -18 -63 4 -63 16 0 39 36 46 77 7 34 -35 23 -50 -14z"/>
</g>
</svg>
